<mxfile modified="2020-11-12T16:52:55.872Z" host="app.diagrams.net" agent="5.0 (Macintosh; Intel Mac OS X 10_12_6) AppleWebKit/537.36 (KHTML, like Gecko) Chrome/86.0.4240.193 Safari/537.36" etag="22i-8zVXbTsCiURYeJJL" version="13.6.2" type="github">
  <diagram id="Ht1M8jgEwFfnCIfOTk4-" name="Page-1">
    <mxGraphModel dx="1189" dy="1051" grid="1" gridSize="10" guides="1" tooltips="1" connect="1" arrows="1" fold="1" page="1" pageScale="1" pageWidth="1169" pageHeight="827" math="0" shadow="0">
      <root>
        <mxCell id="0" />
        <mxCell id="1" parent="0" />
        <mxCell id="K-pF8CbbJTNkB4duFRUY-7" value="Replicates" style="edgeStyle=orthogonalEdgeStyle;rounded=0;orthogonalLoop=1;jettySize=auto;html=1;" edge="1" parent="1" source="K-pF8CbbJTNkB4duFRUY-1" target="K-pF8CbbJTNkB4duFRUY-3">
          <mxGeometry relative="1" as="geometry" />
        </mxCell>
        <mxCell id="K-pF8CbbJTNkB4duFRUY-11" value="S3 Access Logs" style="rounded=0;orthogonalLoop=1;jettySize=auto;html=1;edgeStyle=orthogonalEdgeStyle;endArrow=classic;endFill=1;dashed=1;" edge="1" parent="1" source="K-pF8CbbJTNkB4duFRUY-1" target="K-pF8CbbJTNkB4duFRUY-9">
          <mxGeometry relative="1" as="geometry">
            <mxPoint x="140" y="420" as="targetPoint" />
            <Array as="points">
              <mxPoint x="140" y="149" />
              <mxPoint x="140" y="420" />
            </Array>
          </mxGeometry>
        </mxCell>
        <mxCell id="K-pF8CbbJTNkB4duFRUY-1" value="asci-prod-us-east-1 (Virginia)" style="outlineConnect=0;fontColor=#232F3E;gradientColor=#60A337;gradientDirection=north;fillColor=#277116;strokeColor=#ffffff;dashed=0;verticalLabelPosition=bottom;verticalAlign=top;align=center;html=1;fontSize=12;fontStyle=0;aspect=fixed;shape=mxgraph.aws4.resourceIcon;resIcon=mxgraph.aws4.s3;" vertex="1" parent="1">
          <mxGeometry x="230" y="110" width="78" height="78" as="geometry" />
        </mxCell>
        <mxCell id="K-pF8CbbJTNkB4duFRUY-8" value="Replicates" style="edgeStyle=orthogonalEdgeStyle;rounded=0;orthogonalLoop=1;jettySize=auto;html=1;" edge="1" parent="1" source="K-pF8CbbJTNkB4duFRUY-2" target="K-pF8CbbJTNkB4duFRUY-4">
          <mxGeometry relative="1" as="geometry" />
        </mxCell>
        <mxCell id="K-pF8CbbJTNkB4duFRUY-12" style="edgeStyle=orthogonalEdgeStyle;rounded=0;orthogonalLoop=1;jettySize=auto;html=1;dashed=1;endArrow=none;endFill=0;" edge="1" parent="1" source="K-pF8CbbJTNkB4duFRUY-2">
          <mxGeometry relative="1" as="geometry">
            <mxPoint x="140" y="299" as="targetPoint" />
          </mxGeometry>
        </mxCell>
        <mxCell id="K-pF8CbbJTNkB4duFRUY-2" value="asci-prod-eu-west-1 (Ireland)" style="outlineConnect=0;fontColor=#232F3E;gradientColor=#60A337;gradientDirection=north;fillColor=#277116;strokeColor=#ffffff;dashed=0;verticalLabelPosition=bottom;verticalAlign=top;align=center;html=1;fontSize=12;fontStyle=0;aspect=fixed;shape=mxgraph.aws4.resourceIcon;resIcon=mxgraph.aws4.s3;" vertex="1" parent="1">
          <mxGeometry x="230" y="260" width="78" height="78" as="geometry" />
        </mxCell>
        <mxCell id="K-pF8CbbJTNkB4duFRUY-3" value="asci-prod-us-east-2 (Ohio)&lt;br&gt;" style="outlineConnect=0;fontColor=#232F3E;gradientColor=#60A337;gradientDirection=north;fillColor=#277116;strokeColor=#ffffff;dashed=0;verticalLabelPosition=bottom;verticalAlign=top;align=center;html=1;fontSize=12;fontStyle=0;aspect=fixed;shape=mxgraph.aws4.resourceIcon;resIcon=mxgraph.aws4.s3;" vertex="1" parent="1">
          <mxGeometry x="420" y="110" width="78" height="78" as="geometry" />
        </mxCell>
        <mxCell id="K-pF8CbbJTNkB4duFRUY-4" value="asci-prod-eu-central-1 (Frankfurt)" style="outlineConnect=0;fontColor=#232F3E;gradientColor=#60A337;gradientDirection=north;fillColor=#277116;strokeColor=#ffffff;dashed=0;verticalLabelPosition=bottom;verticalAlign=top;align=center;html=1;fontSize=12;fontStyle=0;aspect=fixed;shape=mxgraph.aws4.resourceIcon;resIcon=mxgraph.aws4.s3;" vertex="1" parent="1">
          <mxGeometry x="420" y="260" width="78" height="78" as="geometry" />
        </mxCell>
        <mxCell id="K-pF8CbbJTNkB4duFRUY-5" value="asci-qa" style="outlineConnect=0;fontColor=#232F3E;gradientColor=#60A337;gradientDirection=north;fillColor=#277116;strokeColor=#ffffff;dashed=0;verticalLabelPosition=bottom;verticalAlign=top;align=center;html=1;fontSize=12;fontStyle=0;aspect=fixed;shape=mxgraph.aws4.resourceIcon;resIcon=mxgraph.aws4.s3;" vertex="1" parent="1">
          <mxGeometry x="820" y="110" width="78" height="78" as="geometry" />
        </mxCell>
        <mxCell id="K-pF8CbbJTNkB4duFRUY-6" value="asci-develop" style="outlineConnect=0;fontColor=#232F3E;gradientColor=#60A337;gradientDirection=north;fillColor=#277116;strokeColor=#ffffff;dashed=0;verticalLabelPosition=bottom;verticalAlign=top;align=center;html=1;fontSize=12;fontStyle=0;aspect=fixed;shape=mxgraph.aws4.resourceIcon;resIcon=mxgraph.aws4.s3;" vertex="1" parent="1">
          <mxGeometry x="820" y="250" width="78" height="78" as="geometry" />
        </mxCell>
        <mxCell id="K-pF8CbbJTNkB4duFRUY-9" value="asci-prod-logs (Virginia)&lt;br&gt;Bucket for CloudTrail and S3 Access Logs" style="outlineConnect=0;fontColor=#232F3E;gradientColor=#60A337;gradientDirection=north;fillColor=#277116;strokeColor=#ffffff;dashed=0;verticalLabelPosition=bottom;verticalAlign=top;align=center;html=1;fontSize=12;fontStyle=0;aspect=fixed;shape=mxgraph.aws4.resourceIcon;resIcon=mxgraph.aws4.s3;" vertex="1" parent="1">
          <mxGeometry x="320" y="400" width="78" height="78" as="geometry" />
        </mxCell>
        <mxCell id="K-pF8CbbJTNkB4duFRUY-13" value="asci-dev-logs (Ohio)&lt;br&gt;Bucket for CloudTrail and anything else we decide to turn on" style="outlineConnect=0;fontColor=#232F3E;gradientColor=#60A337;gradientDirection=north;fillColor=#277116;strokeColor=#ffffff;dashed=0;verticalLabelPosition=bottom;verticalAlign=top;align=center;html=1;fontSize=12;fontStyle=0;aspect=fixed;shape=mxgraph.aws4.resourceIcon;resIcon=mxgraph.aws4.s3;" vertex="1" parent="1">
          <mxGeometry x="820" y="400" width="78" height="78" as="geometry" />
        </mxCell>
        <mxCell id="K-pF8CbbJTNkB4duFRUY-14" style="edgeStyle=orthogonalEdgeStyle;rounded=0;orthogonalLoop=1;jettySize=auto;html=1;dashed=1;endArrow=none;endFill=0;" edge="1" parent="1" source="K-pF8CbbJTNkB4duFRUY-13" target="K-pF8CbbJTNkB4duFRUY-13">
          <mxGeometry relative="1" as="geometry" />
        </mxCell>
      </root>
    </mxGraphModel>
  </diagram>
</mxfile>
